<svg xmlns="http://www.w3.org/2000/svg" width="32" height="32" viewBox="0 0 32 32" fill="none">
  <!-- Black background with rounded corners -->
  <rect width="32" height="32" rx="6" fill="#1a1a1a"/>

  <!-- Orange ticket icon (matching Lucide Ticket style) -->
  <g transform="translate(4, 4)" stroke="#ff4d00" stroke-width="1.5" stroke-linecap="round" stroke-linejoin="round" fill="none">
    <!-- Ticket outline -->
    <path d="M3 7a2 2 0 0 1 2-2h14a2 2 0 0 1 2 2v3a2 2 0 0 0 0 4v3a2 2 0 0 1-2 2H5a2 2 0 0 1-2-2v-3a2 2 0 0 0 0-4V7z"/>
    <!-- Dashed line -->
    <path d="M9 5v2M9 17v2M9 11v2" stroke-dasharray="0"/>
  </g>
</svg>
