<svg xmlns="http://www.w3.org/2000/svg" width="32" height="32" viewBox="0 0 32 32" fill="none">
  <!-- Orange background with rounded corners -->
  <rect width="32" height="32" rx="6" fill="#ff4d00"/>

  <!-- Black ticket outline with white fill inside -->
  <g transform="translate(4, 4)" stroke="#1a1a1a" stroke-width="1.5" stroke-linecap="round" stroke-linejoin="round">
    <!-- Ticket outline with white fill -->
    <path d="M3 7a2 2 0 0 1 2-2h14a2 2 0 0 1 2 2v3a2 2 0 0 0 0 4v3a2 2 0 0 1-2 2H5a2 2 0 0 1-2-2v-3a2 2 0 0 0 0-4V7z" fill="white"/>
    <!-- Dashed line -->
    <path d="M9 5v2M9 17v2M9 11v2" stroke-dasharray="0" fill="none"/>
  </g>
</svg>
